<?xml version="1.0" encoding="utf-8"?>
<!-- Generator: Adobe Illustrator 25.1.0, SVG Export Plug-In . SVG Version: 6.00 Build 0)  -->
<svg version="1.1" id="Ebene_1" xmlns="http://www.w3.org/2000/svg" xmlns:xlink="http://www.w3.org/1999/xlink" x="0px" y="0px"
	 viewBox="0 0 1080 1080" style="enable-background:new 0 0 1080 1080;" xml:space="preserve">
<style type="text/css">
	.st0{fill:#80ECDA;}
	.st1{fill:#27336B;}
</style>
<g>
	<rect y="0" class="st0" width="1080" height="1080"/>
</g>
<g>
	<path class="st1" d="M183,474.3v-24l22.9-4.4V289.5l-22.9-4.4V261h22.9H264l60.4,151.5h0.9L383.7,261h81.4v24.2l-23,4.4v156.3
		l23,4.4v24h-85.8v-24l24.2-4.4v-45.3l0.6-94.8l-0.7-0.1l-65,164.6h-29.4l-66.7-163.6l-0.9,0.1l2.3,90.2v48.8l25.2,4.4v24H183z"/>
	<path class="st1" d="M558.3,477.3c-15,0-28.2-3.3-39.3-10c-11.2-6.7-19.8-15.9-26-27.7c-6.2-11.8-9.2-25.2-9.2-40.4v-6
		c0-15.5,3-29.4,8.9-41.5c5.9-12.2,14.2-21.7,24.8-28.6c10.6-6.9,22.9-10.3,36.9-10.3c14.4,0,26.4,2.9,36.2,8.6
		c9.8,5.7,17.1,13.9,22.1,24.5c5,10.6,7.5,23.4,7.5,38.4v22.1h-95.1l-0.3,0.9c0.4,7.6,2.1,14.4,5.1,20.3c3,5.9,7.3,10.6,12.7,14
		c5.5,3.4,12.1,5.1,19.9,5.1c8.3,0,15.9-1.1,22.8-3.2c6.9-2.1,13.5-5.3,19.7-9.5l11.4,24.8c-6.3,5.3-14.4,9.7-24.2,13.3
		C582.5,475.6,571.2,477.3,558.3,477.3z M525.5,379.3h57.1v-3.8c0-6.6-1-12.4-2.9-17.4c-2-4.9-5-8.8-9-11.5
		c-4.1-2.7-9.3-4.1-15.7-4.1c-5.9,0-10.9,1.6-15.1,4.8c-4.2,3.2-7.5,7.5-10,12.9c-2.4,5.4-4.1,11.5-4.8,18.4L525.5,379.3z"/>
	<path class="st1" d="M702.9,477.3c-12.6,0-23.4-3.2-32.5-9.7s-16-15.5-20.9-27.2c-4.8-11.7-7.3-25.3-7.3-40.8v-3.1
		c0-16.7,2.4-31.3,7.3-43.9s11.8-22.4,20.9-29.4c9.1-7,19.9-10.5,32.4-10.5c9,0,16.8,1.7,23.4,5.2c6.6,3.5,12.4,8.4,17.1,14.9v-58.6
		l-23-4.4v-24.2h23h39.8v200.1l21.2,4.4v24h-55.7l-3.1-19.2c-5,7.3-11,12.9-18,16.6S712.4,477.3,702.9,477.3z M714.5,446.1
		c6.5,0,12.2-1.4,17-4.2c4.8-2.8,8.7-6.9,11.9-12.2v-68.6c-3-5.4-6.9-9.6-11.7-12.6c-4.8-3-10.4-4.5-16.8-4.5
		c-7.5,0-13.7,2.2-18.5,6.7c-4.8,4.4-8.4,10.6-10.7,18.5c-2.3,7.9-3.4,17-3.4,27.5v3.1c0,14.4,2.5,25.7,7.6,34
		C694.8,442,703,446.1,714.5,446.1z"/>
	<path class="st1" d="M818.2,474.3v-24l21.2-4.4V344.3l-23-4.4v-24.2h62.8v130.1l21.2,4.4v24H818.2z M837.9,281v-35.3h41.3V281
		H837.9z"/>
	<path class="st1" d="M257.8,774.3v-24l15.4-2.2L342.5,561h39.7L450.9,748l15.2,2.2v24h-70.2v-24l15.1-2.8l-10.4-31.3h-77.2
		L313,747.5l14.9,2.8v24H257.8z M333.2,686.1h57.6l-26.2-75.9l-2.1-6.2h-0.9l-2.2,6.4L333.2,686.1z"/>
	<path class="st1" d="M478.4,835.2V811l21.1-4.4V644.3l-23.1-4.4v-24.2h59.3l2.2,18.6c4.8-6.9,10.6-12.3,17.4-16
		c6.8-3.7,14.9-5.6,24.3-5.6c12.8,0,23.8,3.5,32.9,10.5c9.1,7,16.1,16.8,21,29.4c4.9,12.6,7.3,27.2,7.3,43.9v3.1
		c0,15.5-2.4,29.1-7.3,40.8c-4.9,11.7-11.9,20.7-21,27.2c-9.1,6.4-20.1,9.7-33,9.7c-8.8,0-16.5-1.6-23.1-4.7
		c-6.6-3.1-12.4-7.7-17.1-13.8v47.8l21.7,4.4v24.2H478.4z M567.5,746.7c11.5,0,20-4.2,25.3-12.7c5.4-8.5,8.1-19.9,8.1-34.3v-3.1
		c0-10.4-1.2-19.6-3.6-27.5c-2.4-7.9-6.1-14-11.1-18.5c-5-4.4-11.3-6.7-19-6.7c-6.3,0-11.9,1.4-16.6,4.3c-4.7,2.9-8.5,6.9-11.4,12.1
		v71c2.8,4.9,6.6,8.6,11.4,11.3C555.3,745.4,560.9,746.7,567.5,746.7z"/>
	<path class="st1" d="M656.5,835.2V811l21.1-4.4V644.3l-23.1-4.4v-24.2h59.3l2.2,18.6c4.8-6.9,10.6-12.3,17.4-16
		c6.8-3.7,14.9-5.6,24.3-5.6c12.8,0,23.8,3.5,32.9,10.5c9.1,7,16.1,16.8,21,29.4c4.9,12.6,7.3,27.2,7.3,43.9v3.1
		c0,15.5-2.4,29.1-7.3,40.8c-4.9,11.7-11.9,20.7-21,27.2c-9.1,6.4-20.1,9.7-33,9.7c-8.8,0-16.5-1.6-23.1-4.7
		c-6.6-3.1-12.4-7.7-17.1-13.8v47.8L739,811v24.2H656.5z M745.6,746.7c11.5,0,20-4.2,25.3-12.7c5.4-8.5,8.1-19.9,8.1-34.3v-3.1
		c0-10.4-1.2-19.6-3.6-27.5c-2.4-7.9-6.1-14-11.1-18.5c-5-4.4-11.3-6.7-19-6.7c-6.3,0-11.9,1.4-16.6,4.3c-4.7,2.9-8.5,6.9-11.4,12.1
		v71c2.8,4.9,6.6,8.6,11.4,11.3C733.4,745.4,739,746.7,745.6,746.7z"/>
</g>
</svg>
